<svg fill="#A9A9A9" xmlns:xlink="http://www.w3.org/1999/xlink" xmlns="http://www.w3.org/2000/svg" stroke-width="0.501" stroke-linejoin="bevel" fill-rule="evenodd" version="1.1" overflow="visible" viewBox="0 0 75 75" x="0px" y="0px"><g fill="none" stroke="black" font-family="Times New Roman" font-size="16" transform="scale(1 -1)"><g transform="translate(0 -75)"><g><path d="M 19.96,21.821 L 19.96,28.428 C 19.96,28.577 19.971,28.725 19.994,28.875 C 20.565,25.156 28.189,22.21 37.5,22.21 C 47.181,22.21 55.039,25.396 54.99,28.929 C 54.978,29.035 55,28.914 55.037,28.448 C 55.009,28.917 55.04,28.675 55.04,28.43 C 55.04,28.427 55.039,28.424 55.039,28.421 L 55.039,21.821 C 55.039,17.896 47.181,14.71 37.5,14.71 C 27.818,14.71 19.96,17.896 19.96,21.821 Z M 53.381,22.085 C 53.381,22.653 53.033,23.115 52.607,23.115 C 52.182,23.115 51.834,22.653 51.834,22.085 C 51.834,21.517 52.182,21.055 52.607,21.055 C 53.033,21.055 53.381,21.517 53.381,22.085 Z M 19.96,31.571 L 19.96,38.178 C 19.96,38.327 19.971,38.475 19.994,38.625 C 20.565,34.906 28.189,31.96 37.5,31.96 C 47.181,31.96 55.039,35.146 54.99,38.679 C 54.978,38.785 55,38.664 55.037,38.198 C 55.009,38.667 55.04,38.425 55.04,38.18 C 55.04,38.177 55.039,38.174 55.039,38.171 L 55.039,31.571 C 55.039,27.646 47.181,24.46 37.5,24.46 C 27.818,24.46 19.96,27.646 19.96,31.571 Z M 53.381,31.835 C 53.381,32.403 53.033,32.865 52.607,32.865 C 52.182,32.865 51.834,32.403 51.834,31.835 C 51.834,31.267 52.182,30.805 52.607,30.805 C 53.033,30.805 53.381,31.267 53.381,31.835 Z M 19.96,41.321 L 19.96,47.928 C 19.96,48.077 19.971,48.225 19.994,48.375 C 20.565,44.656 28.189,41.71 37.5,41.71 C 47.181,41.71 55.039,44.896 54.99,48.429 C 54.978,48.535 55,48.414 55.037,47.948 C 55.009,48.417 55.04,48.175 55.04,47.93 C 55.04,47.927 55.039,47.924 55.039,47.921 L 55.039,41.321 C 55.039,37.396 47.181,34.21 37.5,34.21 C 27.818,34.21 19.96,37.396 19.96,41.321 Z M 53.381,41.585 C 53.381,42.153 53.033,42.615 52.607,42.615 C 52.182,42.615 51.834,42.153 51.834,41.585 C 51.834,41.017 52.182,40.555 52.607,40.555 C 53.033,40.555 53.381,41.017 53.381,41.585 Z M 19.96,51.071 L 19.96,53.178 C 19.96,54.111 20.404,55.003 21.338,55.944 C 23.8,58.439 30.12,60.29 37.501,60.29 C 45.367,60.29 52.029,58.187 54.274,55.257 C 54.319,55.199 54.375,55.121 54.657,54.651 L 54.654,54.656 C 54.651,54.661 54.649,54.666 54.653,54.656 C 54.605,54.737 54.597,54.75 54.651,54.661 L 54.65,54.662 C 54.618,54.717 54.625,54.706 54.642,54.677 C 54.603,54.747 54.609,54.736 54.629,54.701 C 54.542,54.859 54.549,54.849 54.644,54.675 L 54.646,54.671 C 54.613,54.732 54.619,54.723 54.647,54.67 C 54.644,54.674 54.649,54.666 54.655,54.657 C 54.651,54.663 54.648,54.668 54.648,54.669 L 54.649,54.665 L 54.651,54.661 C 54.646,54.67 54.654,54.658 54.662,54.645 C 54.659,54.649 54.656,54.654 54.653,54.658 C 54.641,54.681 54.647,54.671 54.653,54.658 C 54.653,54.658 54.654,54.657 54.655,54.656 L 54.66,54.647 C 54.661,54.646 54.678,54.614 54.694,54.582 C 54.74,54.494 54.792,54.378 54.939,53.932 C 54.8,54.381 54.889,54.145 54.952,53.884 C 54.978,53.785 55,53.664 55.037,53.198 C 55.009,53.667 55.04,53.425 55.04,53.18 C 55.04,53.177 55.039,53.174 55.039,53.171 L 55.039,51.071 C 55.039,47.146 47.181,43.96 37.5,43.96 C 27.818,43.96 19.96,47.146 19.96,51.071 Z M 54.652,54.659 C 54.638,54.684 54.645,54.672 54.653,54.658 C 54.655,54.654 54.657,54.65 54.66,54.647 C 54.656,54.653 54.653,54.657 54.652,54.659 Z M 54.653,54.657 L 54.651,54.661 L 54.653,54.656 C 54.643,54.672 54.65,54.662 54.657,54.651 C 54.655,54.654 54.653,54.656 54.653,54.657 Z M 54.653,54.658 C 54.638,54.682 54.645,54.67 54.654,54.657 C 54.645,54.672 54.638,54.684 54.653,54.658 Z M 54.654,54.657 L 54.653,54.658 L 54.652,54.658 C 54.647,54.669 54.65,54.663 54.654,54.657 Z M 54.651,54.662 C 54.639,54.685 54.645,54.673 54.652,54.66 C 54.652,54.66 54.653,54.659 54.653,54.658 L 54.651,54.661 Z M 54.651,54.662 L 54.652,54.66 L 54.652,54.659 L 54.651,54.662 Z M 54.652,54.66 C 54.649,54.665 54.647,54.668 54.65,54.663 L 54.652,54.659 C 54.645,54.672 54.648,54.666 54.652,54.659 C 54.651,54.662 54.649,54.665 54.652,54.66 Z M 54.653,54.659 L 54.652,54.66 C 54.65,54.665 54.647,54.669 54.651,54.662 L 54.648,54.667 C 54.645,54.672 54.646,54.67 54.649,54.664 C 54.645,54.671 54.649,54.666 54.653,54.658 L 54.653,54.659 Z M 54.65,54.663 L 54.65,54.662 L 54.652,54.659 L 54.65,54.663 Z M 54.649,54.664 L 54.649,54.665 L 54.651,54.662 L 54.649,54.664 Z M 54.649,54.665 L 54.647,54.669 L 54.645,54.673 L 54.651,54.662 L 54.649,54.665 Z M 54.646,54.67 C 54.643,54.675 54.643,54.674 54.65,54.663 L 54.646,54.67 Z M 54.648,54.666 L 54.646,54.67 L 54.65,54.663 L 54.649,54.666 Z M 54.648,54.668 L 54.646,54.671 L 54.648,54.666 L 54.648,54.668 Z M 54.648,54.667 C 54.645,54.673 54.646,54.671 54.648,54.667 Z M 54.647,54.67 L 54.646,54.671 L 54.647,54.669 L 54.647,54.67 Z M 54.642,54.677 L 54.646,54.67 C 54.642,54.678 54.64,54.681 54.642,54.676 Z M 54.636,54.689 C 54.634,54.692 54.635,54.69 54.643,54.676 L 54.646,54.671 L 54.636,54.689 Z M 54.644,54.675 C 54.636,54.689 54.632,54.696 54.629,54.701 C 54.63,54.7 54.631,54.698 54.636,54.689 C 54.635,54.691 54.639,54.684 54.645,54.673 C 54.641,54.68 54.638,54.687 54.644,54.675 Z" fill="#A9A9A9" stroke-width="0.21" stroke="none" marker-start="none" marker-end="none" stroke-miterlimit="79.8403193612775"></path></g></g></g></svg>