<svg fill="#A9A9A9" xmlns="http://www.w3.org/2000/svg" xmlns:xlink="http://www.w3.org/1999/xlink" version="1.2" baseProfile="tiny" x="0px" y="0px" viewBox="0 0 100 100" xml:space="preserve"><path d="M50,5C25.187,5,5,25.187,5,50s20.187,45,45,45s45-20.187,45-45S74.813,5,50,5z M50,82.5c-4.136,0-7.5-3.364-7.5-7.5   s3.364-7.5,7.5-7.5s7.5,3.364,7.5,7.5S54.136,82.5,50,82.5z M62.5,30.738c0,1.462-0.253,2.899-0.753,4.272L52.35,60.854   C51.99,61.843,51.051,62.5,50,62.5s-1.99-0.657-2.35-1.646L38.252,35.01c-0.499-1.372-0.752-2.81-0.752-4.271V30   c0-6.893,5.607-12.5,12.5-12.5S62.5,23.107,62.5,30V30.738z"></path></svg>