<svg fill="#A9A9A9" xmlns="http://www.w3.org/2000/svg" xmlns:xlink="http://www.w3.org/1999/xlink" version="1.1" x="0px" y="0px" viewBox="0 0 1000 1000" enable-background="new 0 0 1000 1000" xml:space="preserve"><g><path d="M680.7,683.2l0.3-0.4c32.9-50.1,26-116.1-17.6-159.6c-24.4-24.4-56.2-37.7-90.5-37.7s-66.5,13.4-90.8,37.4   c-50.4,50.3-50.1,131.6-0.4,181.6c24.4,24.4,56.2,37.7,90.8,37.7c25.6,0,49-6.6,69.6-20.1l61.3,61.3c13.4,13.4,35,13.4,48.4,0   l14.5-14.5L680.7,683.2z M624.6,665.7c-14,14-32.3,21.6-52,21.6s-38-7.8-52-21.6c-27.5-27.5-28.8-71.9-2.7-101.1   c0.8-1.1,1.9-2.2,3-3c14-13.7,32.3-21.6,52-21.6c19.7,0,38,7.8,52,21.6C653.5,590.2,653.7,636.9,624.6,665.7z"></path><path d="M416.2,660.2H303v-34.8h107.1c-1.2-17.4,0.4-34.9,4.7-51.9H303v-34.8h124.8c7.6-14.7,17.4-28.4,29.7-40.7   c4.5-4.5,9.3-8.5,14.3-12.4H303v-34.8h265.2c1.6,0,3.2-0.2,4.8-0.2c23,0,45.2,4.9,65.6,14v-208c0-27.6-22.4-50-50-50h-355v474.2   c0,27.6,22.4,50,50,50h175.1c-0.5-0.5-1.1-1-1.7-1.5C437.2,709.2,423.6,685.4,416.2,660.2z M471.7,275.4h97.4v122.1h-97.4V275.4z    M303,274.9h115.8v34.8H303V274.9z M303,362.8h115.8v34.8H303V362.8z"></path></g></svg>