<svg fill="#A9A9A9" xmlns="http://www.w3.org/2000/svg" xmlns:xlink="http://www.w3.org/1999/xlink" version="1.1" x="0px" y="0px" viewBox="0 0 50.4 50.4" enable-background="new 0 0 50.4 50.4" xml:space="preserve"><g><g><g><path d="M29.376,32.328c-4.152,0-7.533-3.377-7.533-7.532c0-4.168,3.38-7.544,7.533-7.544c4.174,0,7.545,3.375,7.545,7.544     C36.921,28.951,33.547,32.328,29.376,32.328z"></path></g><path d="M50.316,50.4c0,0-2.583-8.313-8.971-14.851c-1.796-1.943-6.618-3.798-9.944-0.997C25.659,39.387,25.659,50.4,25.659,50.4    H50.316z"></path></g><path d="M23.178,50.384c-0.022-3.006-2.463-5.437-5.476-5.437c-2.439,0-4.502,1.594-5.212,3.796l-9.599,0.002   c-0.089,0-0.547-0.018-0.938-0.36c-0.365-0.319-0.318-0.722-0.281-1.044c0.007-0.066,0.014-0.126,0.008-0.126l-0.001,0.001   c1.593-5.442,5.233-13.92,5.615-14.647c0.123-0.212,0.439-0.448,0.75-0.562l0.29-0.086l0.035,0.18   c1.708,8.14,3.429,10.955,3.503,11.073l0.191,0.307l2.298-0.479L9.02,17.209l-2.331,0.483l-0.027,0.392   c-0.01,0.149-0.232,3.688,1.241,11.589c-0.001,0.001-0.002,0.001-0.003,0.002l0.083,0.429l-0.364,0.142   c-0.57,0.235-1.058,0.597-1.534,1.133C5.59,31.931,2.04,40.13,0.081,46.821c-0.014,0.053-0.025,0.107-0.037,0.206   c-0.14,0.934,0.051,1.728,0.563,2.355c0.805,0.981,2.109,1.01,2.255,1.01l11.864-0.003v-0.006H23.178z"></path></g></svg>